<?xml version="1.0" standalone="no"?>
<!DOCTYPE svg PUBLIC "-//W3C//DTD SVG 20010904//EN"
 "http://www.w3.org/TR/2001/REC-SVG-20010904/DTD/svg10.dtd">
<svg version="1.0" xmlns="http://www.w3.org/2000/svg"
 width="1107.000000pt" height="1280.000000pt" viewBox="0 0 1107.000000 1280.000000"
 preserveAspectRatio="xMidYMid meet">
<metadata>
Created by potrace 1.15, written by Peter Selinger 2001-2017
</metadata>
<g transform="translate(0.000000,1280.000000) scale(0.100000,-0.100000)"
fill="#000000" stroke="none">
<path d="M1255 12760 c-19 -21 -14 -36 125 -434 l18 -49 -45 -96 c-64 -138
-430 -959 -845 -1901 -506 -1145 -508 -1149 -508 -1164 0 -14 91 -39 101 -28
3 4 35 74 70 156 35 82 69 151 76 153 20 8 105 -36 306 -156 244 -146 377
-210 448 -218 48 -5 58 -2 85 20 19 16 41 53 59 99 63 161 214 508 230 526 1
2 110 -75 241 -171 395 -288 422 -304 462 -278 7 4 49 129 93 277 44 148 83
272 87 276 4 4 46 -107 94 -245 47 -139 124 -362 171 -497 282 -813 356 -1028
362 -1053 l7 -28 -58 5 c-106 10 -891 29 -1256 30 l-356 1 -26 -28 c-40 -43
-37 -107 10 -176 95 -140 743 -767 2219 -2146 868 -811 1093 -1023 1304 -1231
l184 -181 -12 -514 c-7 -283 -16 -674 -21 -869 -5 -195 -14 -562 -21 -815 -6
-253 -14 -570 -17 -704 l-7 -245 -510 -236 c-685 -317 -893 -423 -1072 -543
-54 -37 -63 -47 -69 -82 -23 -132 26 -168 266 -196 125 -15 2219 -20 2950 -7
596 10 706 20 770 74 25 21 30 33 30 69 0 84 -59 128 -390 295 -118 59 -357
174 -530 255 -173 80 -417 196 -541 257 l-226 110 -7 267 c-4 146 -11 446 -16
666 -6 220 -17 670 -25 1000 -8 330 -18 740 -21 910 l-6 310 143 136 c79 74
484 452 899 839 415 388 870 812 1010 944 140 132 267 251 282 264 l27 25 38
-30 c138 -109 394 -244 585 -307 567 -189 1213 -121 1723 179 557 327 900 886
922 1500 18 511 -176 982 -555 1347 -589 567 -1492 724 -2262 391 -619 -268
-1053 -825 -1131 -1451 l-13 -99 -145 -7 c-80 -3 -395 -18 -700 -31 -304 -14
-555 -24 -557 -22 -3 3 205 667 211 675 2 2 41 -2 88 -8 177 -24 339 30 463
154 134 135 183 307 139 495 -41 170 -153 313 -330 416 -16 10 -13 25 44 205
34 107 64 200 66 207 2 6 -5 23 -16 37 -23 29 -69 35 -91 13 -7 -8 -35 -81
-61 -163 -87 -271 -77 -250 -117 -244 -64 9 -195 4 -245 -9 -182 -49 -334
-199 -381 -375 -19 -69 -18 -204 2 -280 35 -137 138 -278 258 -356 l63 -41
-64 -202 c-36 -111 -89 -276 -118 -367 l-53 -165 -114 -6 c-236 -13 -561 -8
-1349 21 -448 16 -877 32 -954 35 l-140 7 -269 776 c-148 428 -296 854 -328
947 l-59 170 193 -191 c106 -105 203 -194 215 -198 35 -11 61 10 73 57 36 144
227 642 246 642 6 0 49 -45 95 -100 142 -170 283 -327 353 -392 85 -81 116
-84 164 -20 61 79 365 399 459 483 l95 84 84 -65 c46 -36 121 -94 167 -129
l83 -64 23 19 c13 11 32 19 42 19 45 0 17 39 -83 117 -196 153 -1330 982
-2592 1894 -360 260 -492 361 -497 379 -19 68 -130 374 -140 386 -17 20 -53
17 -74 -6z"/>
</g>
</svg>
