<?xml version="1.0" standalone="no"?>
<!DOCTYPE svg PUBLIC "-//W3C//DTD SVG 20010904//EN"
 "http://www.w3.org/TR/2001/REC-SVG-20010904/DTD/svg10.dtd">
<svg version="1.0" xmlns="http://www.w3.org/2000/svg"
 width="1280.000000pt" height="1280.000000pt" viewBox="0 0 1280.000000 1280.000000"
 preserveAspectRatio="xMidYMid meet">
<g transform="translate(0.000000,1280.000000) scale(0.100000,-0.100000)"
fill="#000000" stroke="none">
<path d="M3266 10420 c-372 -59 -695 -296 -859 -632 -88 -178 -124 -358 -114
-563 25 -518 393 -950 905 -1062 108 -24 368 -24 474 -1 434 97 758 410 876
847 23 87 26 113 26 276 -1 161 -3 190 -26 276 -114 423 -413 723 -834 835
-79 20 -128 26 -244 29 -80 2 -171 0 -204 -5z"/>
<path d="M9190 10415 c-163 -27 -333 -98 -476 -196 -86 -59 -222 -198 -283
-287 -308 -454 -251 -1072 135 -1456 206 -205 463 -319 751 -333 336 -16 640
101 873 337 142 143 245 323 297 517 25 90 27 114 27 288 0 174 -2 198 -27
288 -85 318 -311 594 -605 741 -196 99 -471 139 -692 101z"/>
<path d="M2217 8172 c-30 -31 -41 -75 -101 -402 -138 -758 -267 -1616 -406
-2700 -22 -173 -49 -382 -60 -465 -10 -82 -31 -244 -46 -360 -14 -115 -34
-268 -44 -340 l-18 -130 24 -52 c26 -55 52 -75 156 -125 62 -29 65 -35 44 -76
-21 -41 -40 -202 -34 -290 10 -145 46 -210 141 -256 l52 -26 185 15 c452 36
1405 86 1920 101 194 5 237 4 246 -7 22 -27 80 -438 113 -799 32 -344 42 -566
54 -1225 l12 -620 23 -32 c32 -46 71 -53 275 -53 200 0 233 8 268 62 20 33 21
36 15 678 -6 790 -21 1120 -77 1660 -30 296 -104 779 -129 844 -6 18 -20 26
-57 32 -26 5 -403 9 -838 9 -785 0 -790 0 -786 20 3 11 3 94 2 185 -6 438 39
1189 115 1915 55 531 84 787 90 796 3 6 9 9 14 7 4 -2 65 -79 135 -173 259
-346 427 -517 799 -818 20 -16 51 -19 282 -24 247 -5 787 10 922 26 109 13
124 49 87 203 -21 85 -58 130 -121 146 -21 6 -129 16 -239 22 -203 12 -519 41
-662 61 l-78 11 -121 122 c-66 66 -176 189 -245 271 -110 133 -600 755 -671
853 l-28 37 20 205 c24 243 25 290 6 334 -20 47 -48 70 -155 125 -204 104
-420 163 -906 246 -127 21 -147 20 -178 -13z"/>
<path d="M10330 8170 c-430 -75 -668 -144 -864 -254 -80 -45 -113 -83 -121
-141 -4 -25 2 -143 15 -275 l23 -230 -42 -53 c-23 -28 -158 -200 -300 -382
-344 -441 -441 -556 -595 -711 l-131 -132 -80 -11 c-187 -26 -346 -41 -590
-56 -143 -8 -279 -21 -303 -27 -84 -21 -127 -94 -139 -235 -5 -56 -3 -64 19
-86 21 -21 37 -25 114 -31 308 -23 866 -32 1069 -18 102 8 67 -14 300 183 226
191 434 420 635 698 52 72 100 131 107 131 14 0 16 -16 48 -315 14 -132 34
-321 45 -420 75 -698 120 -1417 120 -1910 0 -126 2 -241 3 -255 l2 -25 -805 0
c-544 0 -815 -3 -835 -11 -16 -6 -35 -21 -42 -35 -26 -54 -106 -585 -137 -909
-49 -508 -65 -865 -73 -1610 -6 -665 -7 -657 53 -697 24 -16 54 -18 229 -21
225 -3 252 3 288 66 18 30 19 73 28 645 9 650 21 910 60 1302 26 265 82 661
100 704 l10 24 237 -7 c498 -14 1480 -66 1918 -101 139 -11 190 -11 218 -3 52
16 120 79 141 130 35 86 28 375 -11 435 -8 12 -14 27 -14 32 0 5 30 23 67 41
92 42 127 71 153 124 21 44 21 47 6 153 -9 59 -36 268 -61 463 -136 1083 -194
1517 -290 2165 -99 665 -262 1590 -290 1645 -31 59 -51 61 -285 20z"/>
<path d="M6298 7560 c-95 -124 -90 -274 12 -398 29 -36 30 -39 30 -144 0 -60
4 -108 8 -108 18 0 82 115 92 167 18 83 -10 174 -77 254 -26 31 -28 40 -33
148 l-5 116 -27 -35z"/>
<path d="M5921 7115 c-76 -120 -65 -255 30 -376 28 -35 29 -41 29 -143 0 -66
4 -106 10 -106 17 0 70 91 86 148 25 86 -1 185 -75 276 -30 38 -31 41 -31 142
0 64 -4 104 -10 104 -6 0 -23 -20 -39 -45z"/>
<path d="M6630 7118 c-81 -111 -73 -253 20 -370 29 -36 30 -41 30 -142 0 -58
4 -107 9 -111 11 -6 50 42 76 95 23 45 31 147 15 195 -7 20 -32 66 -56 101
l-44 64 0 105 c0 63 -4 105 -10 105 -5 0 -24 -19 -40 -42z"/>
<path d="M830 7051 c-7 -14 -9 -1070 -8 -3363 l3 -3343 115 -3 c77 -1 123 2
140 10 49 25 150 273 209 513 88 359 161 1000 161 1425 0 69 4 110 12 118 18
18 2031 17 2046 0 5 -8 12 -138 16 -308 14 -624 46 -1017 117 -1450 47 -283
59 -301 218 -310 53 -3 103 -4 112 -2 30 7 40 52 59 261 38 417 58 953 62
1708 3 496 3 502 -18 530 -11 15 -36 33 -55 40 -26 9 -345 12 -1295 12 -1141
1 -1262 3 -1268 17 -3 9 -6 79 -6 157 0 502 -78 1576 -175 2422 -80 698 -183
1439 -210 1514 -24 70 -27 71 -131 71 -82 0 -95 -2 -104 -19z"/>
<path d="M11762 7033 c-26 -52 -37 -104 -72 -353 -202 -1450 -306 -2598 -333
-3695 l-2 -90 -1280 -5 c-1211 -5 -1281 -6 -1306 -23 -53 -36 -52 -28 -46
-730 6 -665 15 -949 42 -1322 29 -401 40 -465 77 -477 7 -2 59 -1 115 2 156 8
166 21 212 292 73 425 120 1056 121 1593 0 120 4 175 12 183 18 18 2031 17
2045 -1 5 -6 15 -133 22 -282 30 -699 117 -1229 258 -1589 76 -195 80 -198
245 -194 l112 3 8 39 c5 21 7 1527 6 3346 -3 2785 -5 3310 -17 3323 -11 14
-32 17 -107 17 l-94 0 -18 -37z"/>
<path d="M7493 6794 c-6 -3 -73 -71 -149 -152 -274 -293 -367 -384 -389 -378
-11 3 -76 14 -145 23 -157 21 -664 25 -810 5 -237 -32 -476 -87 -512 -120 -24
-20 -23 -40 8 -130 36 -109 95 -204 183 -292 90 -91 169 -146 300 -209 l96
-46 325 0 325 0 86 41 c230 110 373 244 459 429 21 44 43 104 50 133 11 49 11
56 -7 73 -10 11 -62 30 -118 44 -55 14 -104 30 -109 35 -10 10 37 60 317 326
160 154 175 175 141 208 -15 16 -29 19 -51 10z"/>
<path d="M3458 5403 c-20 -5 -23 -59 -9 -146 12 -75 25 -83 214 -122 518 -108
1135 -190 1749 -231 494 -33 1533 -30 2068 7 583 39 1296 139 1788 251 112 25
118 33 124 158 l3 85 -2960 1 c-1628 1 -2968 0 -2977 -3z"/>
<path d="M6021 4731 c-28 -28 -27 -49 9 -304 41 -292 75 -617 102 -977 20
-267 22 -377 22 -890 0 -507 -3 -624 -22 -879 -27 -350 -49 -555 -98 -911 -22
-157 -35 -277 -30 -293 13 -53 39 -57 414 -57 214 0 350 4 370 11 55 19 57 45
23 240 -206 1183 -206 2409 0 3798 17 112 28 214 25 227 -12 48 -40 55 -167
43 -111 -11 -526 -6 -596 7 -23 5 -36 1 -52 -15z"/>
</g>
</svg>
